<?xml version="1.0" encoding="UTF-8"?>
<svg id="a" data-name="Слой 1" xmlns="http://www.w3.org/2000/svg" xmlns:xlink="http://www.w3.org/1999/xlink" viewBox="0 0 16 16">
  <defs>
    <style>
      .c {
        fill: #ee3661;
      }

      .d {
        clip-path: url(#b);
      }

      .e {
        fill: none;
      }
    </style>
    <clipPath id="b">
      <rect class="e" width="16" height="16"/>
    </clipPath>
  </defs>
  <g class="d">
    <g>
      <path class="c" d="M4.91,11.65c-.47-.03-.61-1.48-.77-1.88-.68,4.22-2.01-1.15-1.82-2.42,.73-1.53,.95,.27,1.14,1.11,.24-1.56,.97-2.77,1.38-.43,.18-.55,.23-3.02,.8-3.26,1.26-.51-.11,6.94-.72,6.89Z"/>
      <path class="c" d="M10.14,8.12c-.91,7.75-5.41,1.61-3.24-2.81,1.6-2.92,3.52,.82,3.24,2.81Zm-1.23-1.42c-1.95-2.69-2.03,5.23,0,2.65,.34-.81,.32-1.83,0-2.65Z"/>
      <path class="c" d="M13.8,8.63c.15,1.49-1.81,3.86-2.98,1.96-.74-1.35-.98-5.87,1.33-5.11,1,.59,1.66,1.98,1.65,3.14Zm-1.09-1.11c-1.3-2.16-2.15,2.16-.6,2.29,.95-.15,.94-1.62,.6-2.29Z"/>
    </g>
  </g>
</svg>